<svg width="100" height="100" viewBox="0 0 100 100" fill="none" xmlns="http://www.w3.org/2000/svg">
<g clip-path="url(#clip0_7_33)">
<path d="M98.5712 0.5C98.0524 0.165625 97.4618 0 96.8743 0C96.2712 0 95.6649 0.171875 95.1399 0.525L1.38993 63.025C0.424304 63.6656 -0.106946 64.7938 0.0180536 65.95C0.136804 67.1031 0.886804 68.1 1.96493 68.525L26.4149 78.3094L37.9118 98.4281C38.4618 99.3938 39.4837 99.9906 40.5899 100.003C40.6024 100.003 40.6118 100.003 40.6243 100.003C41.7212 100.003 42.7399 99.4219 43.3024 98.4844L49.7931 87.6625L80.0899 99.7781C80.4618 99.9281 80.8524 100 81.2493 100C81.7806 100 82.3056 99.8656 82.7806 99.5969C83.6056 99.1344 84.1712 98.3219 84.3306 97.3875L99.9556 3.6375C100.159 2.40938 99.6149 1.17813 98.5712 0.5ZM9.7993 64.9281L82.2212 16.6438L29.5649 73.0094C29.2868 72.8438 29.0399 72.625 28.7337 72.5031L9.7993 64.9281ZM31.8399 75.2063C31.8337 75.1938 31.8243 75.1875 31.8181 75.175L91.0149 11.8156L40.5493 90.4469L31.8399 75.2063ZM78.8024 92.5281L52.1118 81.8531C51.4774 81.6031 50.8181 81.5188 50.1649 81.4813L91.2649 17.7688L78.8024 92.5281Z" fill="black"/>
</g>
<defs>
<clipPath id="clip0_7_33">
<rect width="100" height="100" fill="white"/>
</clipPath>
</defs>
</svg>
