<svg width="100" height="100" viewBox="0 0 100 100" fill="none" xmlns="http://www.w3.org/2000/svg">
<path d="M37.5 79.1668C16.6667 85.4168 16.6667 68.7501 8.33337 66.6668M66.6667 91.6668V75.5418C66.823 73.5549 66.5546 71.5576 65.8793 69.6826C65.204 67.8075 64.1372 66.0977 62.75 64.6668C75.8334 63.2084 89.5834 58.2501 89.5834 35.5001C89.5823 29.6827 87.3446 24.0884 83.3334 19.875C85.2328 14.7855 85.0985 9.15982 82.9584 4.16669C82.9584 4.16669 78.0417 2.70836 66.6667 10.3334C57.1167 7.74512 47.05 7.74512 37.5 10.3334C26.125 2.70836 21.2084 4.16669 21.2084 4.16669C19.0683 9.15982 18.934 14.7855 20.8334 19.875C16.7922 24.1196 14.5522 29.7645 14.5834 35.6251C14.5834 58.2084 28.3334 63.1668 41.4167 64.7918C40.0459 66.2083 38.9886 67.8976 38.3138 69.7498C37.639 71.6019 37.3617 73.5754 37.5 75.5418V91.6668" stroke="black" stroke-width="4" stroke-linecap="round" stroke-linejoin="round"/>
</svg>
