<svg width="234" height="27" viewBox="0 0 234 27" fill="none" xmlns="http://www.w3.org/2000/svg">
<path id="Vector 2" d="M1.1665 15.0816C8.22298 15.0816 13.4441 11.9534 20.2344 11.048C24.4769 10.4824 28.122 7.16111 32.3352 7.16111C42.2679 7.16111 51.7437 4.52094 61.8904 4.52094C80.1567 4.52094 95.3487 13.7615 113.667 13.7615C118.398 13.7615 121.389 16.4017 125.915 16.4017C130.083 16.4017 132.865 16.9928 136.475 17.7951C138.601 18.2674 139.964 20.6692 142.122 21.3887C144.632 22.2254 147.424 21.903 150.043 22.7088C153.775 23.8572 158.319 23.1627 162.217 24.0289C173.827 26.6088 191.386 25.5454 201.893 20.9487C208.515 18.0516 215.998 13.2001 222.941 11.4147C228.03 10.1059 227.398 5.86682 232.181 1.88077" stroke="#E3CAFA" stroke-width="2" stroke-linecap="round"/>
</svg>
